<svg width="1000" height="605" viewBox="0 0 1170 605" fill="none" xmlns="http://www.w3.org/2000/svg">
<path d="M0 560C0 573.978 0 580.967 2.28361 586.481C5.32843 593.831 11.1687 599.672 18.5195 602.716C24.0326 605 31.0218 605 45 605H1094.08C1116.25 605 1127.33 605 1134.24 601.066C1143.44 595.821 1149.2 586.109 1149.38 575.516C1149.52 567.571 1144.2 557.847 1133.56 538.399L906.238 122.954C902.598 116.302 900.778 112.976 898.349 110.315C895.111 106.767 891.069 104.048 886.562 102.387C883.182 101.141 879.415 100.71 871.881 99.8472L50.1199 5.73969C34.7345 3.97777 27.0417 3.0968 20.9288 5.03598C12.7782 7.62154 6.11821 13.5623 2.62209 21.3659C0 27.2185 0 34.9615 0 50.4475V560Z" fill="#F5F6F9"/>
</svg>
