<svg width="58" height="37" viewBox="0 0 58 37" fill="none" xmlns="http://www.w3.org/2000/svg">
<path d="M36.4153 4.41992H20.9141V32.3047H36.4153V4.41992Z" fill="#FF5F00"/>
<path d="M21.8972 18.3618C21.8947 15.6763 22.5026 13.0254 23.6749 10.6099C24.8472 8.19436 26.5531 6.07746 28.6635 4.41944C26.0501 2.36312 22.9114 1.08432 19.6063 0.729213C16.3011 0.374105 12.9629 0.957003 9.97303 2.41131C6.98319 3.86561 4.46241 6.13264 2.69882 8.95326C0.93523 11.7739 0 15.0343 0 18.3618C0 21.6894 0.93523 24.9498 2.69882 27.7704C4.46241 30.591 6.98319 32.858 9.97303 34.3123C12.9629 35.7666 16.3011 36.3495 19.6063 35.9944C22.9114 35.6393 26.0501 34.3605 28.6635 32.3042C26.5531 30.6462 24.8472 28.5293 23.675 26.1137C22.5027 23.6982 21.8947 21.0473 21.8972 18.3618Z" fill="#EB001B"/>
<path d="M57.3267 18.3618C57.3268 21.6893 56.3917 24.9497 54.6282 27.7703C52.8647 30.5909 50.344 32.858 47.3542 34.3123C44.3645 35.7666 41.0262 36.3495 37.7211 35.9944C34.416 35.6393 31.2774 34.3605 28.6641 32.3042C30.7726 30.6445 32.4772 28.5273 33.6493 26.1121C34.8214 23.6969 35.4304 21.0469 35.4304 18.3618C35.4304 15.6767 34.8214 13.0267 33.6493 10.6115C32.4772 8.19637 30.7726 6.07913 28.6641 4.41944C31.2774 2.36311 34.416 1.08431 37.7211 0.729208C41.0262 0.374105 44.3645 0.957028 47.3542 2.41135C50.344 3.86567 52.8647 6.1327 54.6282 8.95332C56.3917 11.7739 57.3268 15.0343 57.3267 18.3618Z" fill="#F79E1B"/>
<path d="M55.6369 29.3504V28.7795H55.8669V28.6632H55.2812V28.7795H55.5113V29.3504H55.6369ZM56.7739 29.3504V28.6621H56.5944L56.388 29.1355L56.1814 28.6621H56.0018V29.3504H56.1286V28.8312L56.3222 29.2789H56.4536L56.6473 28.8301V29.3504H56.7739Z" fill="#F79E1B"/>
</svg>
