<svg width="49" height="48" viewBox="0 0 49 48" fill="none" xmlns="http://www.w3.org/2000/svg">
<path d="M43.2659 0H2.71489C1.42071 0 0.234375 1.18645 0.234375 2.58862V7.11872C0.234375 8.52089 1.42071 9.70734 2.71489 9.70734H43.2659C44.6679 9.70734 45.7464 8.52089 45.8543 7.11872V2.58862C45.8543 1.18645 44.6679 0 43.2659 0ZM43.2659 25.4548H2.71489C2.0678 25.4548 1.42071 25.7784 0.881466 26.2098C0.450072 26.6413 0.234375 27.2884 0.234375 28.0434V32.5735C0.234375 33.9757 1.42071 35.1621 2.71489 35.1621H43.2659C44.6679 35.1621 45.7464 34.0835 45.8543 32.5735V28.0434C45.8543 26.5334 44.6679 25.4548 43.2659 25.4548ZM25.5788 38.1822H2.71489C2.0678 38.1822 1.42071 38.3979 0.989314 38.9372C0.55792 39.3687 0.234375 40.0158 0.234375 40.7708V45.3009C0.234375 46.7031 1.42071 47.8895 2.71489 47.8895H25.4709C26.8729 47.8895 27.9514 46.7031 27.9514 45.3009V40.663C28.0593 39.2608 26.9808 38.1822 25.5788 38.1822ZM45.8543 12.7274H2.71489C2.0678 12.7274 1.42071 12.9431 0.989314 13.4824C0.55792 13.9139 0.234375 14.561 0.234375 15.316V19.8461C0.234375 21.2483 1.42071 22.4347 2.71489 22.4347H45.7464C47.1485 22.4347 48.2269 21.2483 48.2269 19.8461V15.316C48.3348 13.9139 47.2563 12.7274 45.8543 12.7274Z" fill="#00C3F7"/>
</svg>
