<svg width="80" height="30" viewBox="0 0 91 30" fill="none" xmlns="http://www.w3.org/2000/svg">
<path d="M58.8898 0.782227C52.5058 0.782227 46.8008 4.09436 46.8008 10.2138C46.8008 17.2316 56.9189 17.7163 56.9189 21.2419C56.9189 22.7264 55.2193 24.0552 52.3166 24.0552C48.197 24.0552 45.118 22.1984 45.118 22.1984L43.8005 28.3736C43.8005 28.3736 47.3475 29.942 52.0566 29.942C59.0363 29.942 64.5285 26.4672 64.5285 20.2432C64.5285 12.8276 54.3683 12.3573 54.3683 9.08495C54.3683 7.92209 55.7635 6.64794 58.6579 6.64794C61.9237 6.64794 64.5882 7.99832 64.5882 7.99832L65.8775 2.03414C65.8775 2.03414 62.9784 0.782227 58.8898 0.782227ZM0.482706 1.23235L0.328125 2.13261C0.328125 2.13261 3.01387 2.62462 5.43281 3.60607C8.54741 4.7315 8.76928 5.38667 9.29383 7.4216L15.0098 29.4778H22.6721L34.4765 1.23235H26.8318L19.2467 20.4366L16.1516 4.15818C15.8678 2.29513 14.43 1.23235 12.67 1.23235H0.482706ZM37.5506 1.23235L31.5535 29.4778H38.8434L44.8194 1.23235H37.5506ZM78.2089 1.23235C76.451 1.23235 75.5197 2.17439 74.8362 3.82058L64.1561 29.4778H71.8008L73.2799 25.2016H82.5934L83.4928 29.4778H90.2381L84.3535 1.23235H78.2089ZM79.2031 8.86341L81.4692 19.4625H75.3983L79.2031 8.86341Z" fill="white"/>
</svg>
